<svg width="130" height="90" viewBox="0 0 130 90" fill="none" xmlns="http://www.w3.org/2000/svg">
<path d="M0 15C0 6.71573 6.71573 0 15 0H115C123.284 0 130 6.71573 130 15V75C130 83.2843 123.284 90 115 90H15C6.71573 90 0 83.2843 0 75V15Z" fill="#F54335"/>
<path d="M0 15C0 6.71573 6.71573 0 15 0H115C123.284 0 130 6.71573 130 15V75C130 83.2843 123.284 90 115 90H15C6.71573 90 0 83.2843 0 75V15Z" stroke="#FFD300"/>
<path d="M31.7812 33C34 33 35.7344 33.7917 36.9844 35.375C38.474 37.25 39.2188 40.3594 39.2188 44.7031C39.2188 49.0365 38.4688 52.151 36.9688 54.0469C35.7292 55.6094 34 56.3906 31.7812 56.3906C29.5521 56.3906 27.7552 55.5365 26.3906 53.8281C25.026 52.1094 24.3438 49.0521 24.3438 44.6562C24.3438 40.3438 25.0938 37.2396 26.5938 35.3438C27.8333 33.7812 29.5625 33 31.7812 33ZM31.7812 36.6406C31.25 36.6406 30.776 36.8125 30.3594 37.1562C29.9427 37.4896 29.6198 38.0938 29.3906 38.9688C29.0885 40.1042 28.9375 42.0156 28.9375 44.7031C28.9375 47.3906 29.0729 49.2396 29.3438 50.25C29.6146 51.25 29.9531 51.9167 30.3594 52.25C30.776 52.5833 31.25 52.75 31.7812 52.75C32.3125 52.75 32.7865 52.5833 33.2031 52.25C33.6198 51.9062 33.9427 51.2969 34.1719 50.4219C34.474 49.2969 34.625 47.3906 34.625 44.7031C34.625 42.0156 34.4896 40.1719 34.2188 39.1719C33.9479 38.1615 33.6042 37.4896 33.1875 37.1562C32.7812 36.8125 32.3125 36.6406 31.7812 36.6406ZM58.4375 33C60.6562 33 62.3906 33.7917 63.6406 35.375C65.1302 37.25 65.875 40.3594 65.875 44.7031C65.875 49.0365 65.125 52.151 63.625 54.0469C62.3854 55.6094 60.6562 56.3906 58.4375 56.3906C56.2083 56.3906 54.4115 55.5365 53.0469 53.8281C51.6823 52.1094 51 49.0521 51 44.6562C51 40.3438 51.75 37.2396 53.25 35.3438C54.4896 33.7812 56.2188 33 58.4375 33ZM58.4375 36.6406C57.9062 36.6406 57.4323 36.8125 57.0156 37.1562C56.599 37.4896 56.276 38.0938 56.0469 38.9688C55.7448 40.1042 55.5938 42.0156 55.5938 44.7031C55.5938 47.3906 55.7292 49.2396 56 50.25C56.2708 51.25 56.6094 51.9167 57.0156 52.25C57.4323 52.5833 57.9062 52.75 58.4375 52.75C58.9688 52.75 59.4427 52.5833 59.8594 52.25C60.276 51.9062 60.599 51.2969 60.8281 50.4219C61.1302 49.2969 61.2812 47.3906 61.2812 44.7031C61.2812 42.0156 61.1458 40.1719 60.875 39.1719C60.6042 38.1615 60.2604 37.4896 59.8438 37.1562C59.4375 36.8125 58.9688 36.6406 58.4375 36.6406ZM87.2969 56H82.9062V39.4531C81.3021 40.9531 79.4115 42.0625 77.2344 42.7812V38.7969C78.3802 38.4219 79.625 37.7135 80.9688 36.6719C82.3125 35.6198 83.2344 34.3958 83.7344 33H87.2969V56ZM106.672 51.9219V56H91.2812C91.4479 54.4583 91.9479 53 92.7812 51.625C93.6146 50.2396 95.2604 48.4062 97.7188 46.125C99.6979 44.2812 100.911 43.0312 101.359 42.375C101.964 41.4688 102.266 40.5729 102.266 39.6875C102.266 38.7083 102 37.9583 101.469 37.4375C100.948 36.9062 100.224 36.6406 99.2969 36.6406C98.3802 36.6406 97.651 36.9167 97.1094 37.4688C96.5677 38.0208 96.2552 38.9375 96.1719 40.2188L91.7969 39.7812C92.0573 37.3646 92.875 35.6302 94.25 34.5781C95.625 33.526 97.3438 33 99.4062 33C101.667 33 103.443 33.6094 104.734 34.8281C106.026 36.0469 106.672 37.5625 106.672 39.375C106.672 40.4062 106.484 41.3906 106.109 42.3281C105.745 43.2552 105.161 44.2292 104.359 45.25C103.828 45.9271 102.87 46.901 101.484 48.1719C100.099 49.4427 99.2188 50.2865 98.8438 50.7031C98.4792 51.1198 98.1823 51.526 97.9531 51.9219H106.672Z" fill="white"/>
<circle cx="46" cy="46" r="2" fill="white"/>
<circle cx="72" cy="46" r="2" fill="white"/>
</svg>
