<svg width="130" height="90" viewBox="0 0 130 90" fill="none" xmlns="http://www.w3.org/2000/svg">
<path d="M0 15C0 6.71573 6.71573 0 15 0H115C123.284 0 130 6.71573 130 15V75C130 83.2843 123.284 90 115 90H15C6.71573 90 0 83.2843 0 75V15Z" fill="#A3DC4D"/>
<path d="M0 15C0 6.71573 6.71573 0 15 0H115C123.284 0 130 6.71573 130 15V75C130 83.2843 123.284 90 115 90H15C6.71573 90 0 83.2843 0 75V15Z" stroke="#A3DC4D"/>
<path d="M69.2656 66H64.4609V37.1953H47.4688V32.3906H86.2578V37.1953H69.2656V66Z" fill="white"/>
<path d="M113 82.5C113.105 80.2018 112.39 56.8333 112.127 55.9479C111.863 55.0625 104.588 44.8375 102 39" stroke="white" stroke-width="6"/>
<path d="M102 73L101.497 27.8886C101.436 22.4095 96.9774 18 91.498 18H38C32.4772 18 28 22.4772 28 28V63C28 68.5228 32.4771 73 38 73H89.7675" stroke="white" stroke-width="6" stroke-linejoin="round"/>
<path d="M104.5 82.5965C104.5 80.2528 98.2729 63.8465 95.159 59.159C92.0452 54.4715 86.5961 54.9402 87.3746 63.3777C88.1532 71.8153 91.656 80.2528 91.656 82.5965" stroke="white" stroke-width="6"/>
<path d="M47 27L86 27" stroke="white" stroke-width="5"/>
</svg>
