<svg width="130" height="90" viewBox="0 0 130 90" fill="none" xmlns="http://www.w3.org/2000/svg">
<path d="M0 15C0 6.71573 6.71573 0 15 0H115C123.284 0 130 6.71573 130 15V75C130 83.2843 123.284 90 115 90H15C6.71573 90 0 83.2843 0 75V15Z" fill="#FFD300"/>
<path d="M0 15C0 6.71573 6.71573 0 15 0H115C123.284 0 130 6.71573 130 15V75C130 83.2843 123.284 90 115 90H15C6.71573 90 0 83.2843 0 75V15Z" stroke="#FFD300"/>
<path d="M53.2656 66H48.4609V37.1953H31.4688V32.3906H70.2578V37.1953H53.2656V66Z" fill="white"/>
<path d="M31 27L50.5 27L70 27" stroke="white" stroke-width="5"/>
<path d="M83.3516 60.4453C79.9453 60.0078 77.3828 58.9531 75.6641 57.2812C75.4141 57.0469 75.2891 56.7969 75.2891 56.5312C75.2891 56.2656 75.3984 55.9062 75.6172 55.4531L76.4375 53.7891C76.6875 53.2422 77.0938 52.9688 77.6562 52.9688C78.1875 52.9688 78.7891 53.1719 79.4609 53.5781C80.1328 53.9688 80.7031 54.2656 81.1719 54.4688C82.6094 55.1406 83.9062 55.4766 85.0625 55.4766C86.2344 55.4766 87.1406 55.3906 87.7812 55.2188C88.4219 55.0312 88.9688 54.7656 89.4219 54.4219C90.375 53.6719 90.8516 52.6016 90.8516 51.2109C90.8516 49.4922 89.5469 48.0469 86.9375 46.875C86.1875 46.5469 85.3359 46.2109 84.3828 45.8672C83.4297 45.5078 82.4219 45.0156 81.3594 44.3906C80.2969 43.7656 79.3516 43.0312 78.5234 42.1875C76.6641 40.2969 75.7344 38.1094 75.7344 35.625C75.7344 33.3906 76.5156 31.4922 78.0781 29.9297C79.5 28.5078 81.3438 27.5781 83.6094 27.1406V21.5859C83.6094 21.1797 83.7344 20.8281 83.9844 20.5312C84.25 20.2344 84.5703 20.0859 84.9453 20.0859H87.3125C87.6719 20.0859 87.9766 20.2344 88.2266 20.5312C88.4766 20.8281 88.6016 21.1797 88.6016 21.5859V27.0938C90.5391 27.4062 92.3359 28.0938 93.9922 29.1562C94.3203 29.375 94.625 29.6172 94.9062 29.8828C95.2031 30.1484 95.3516 30.4062 95.3516 30.6562C95.3516 31.1719 95.1406 31.8281 94.7188 32.625C94.0469 33.9062 93.4844 34.5469 93.0312 34.5469C92.8281 34.5469 92.5547 34.4375 92.2109 34.2188C90.2578 32.75 88.1406 32.0156 85.8594 32.0156C83.7031 32.0156 82.2812 32.6953 81.5938 34.0547C81.3594 34.5234 81.2422 35.0859 81.2422 35.7422C81.2422 36.3984 81.4219 36.9844 81.7812 37.5C82.1406 38.0156 82.5938 38.4766 83.1406 38.8828C83.7031 39.2734 84.3281 39.625 85.0156 39.9375L86.9844 40.7812C89.6875 41.8906 91.7656 43.1094 93.2188 44.4375C95.2656 46.2812 96.2891 48.4531 96.2891 50.9531C96.2891 53.375 95.5 55.4531 93.9219 57.1875C92.4688 58.7812 90.6172 59.8281 88.3672 60.3281V65.8828C88.3672 66.2891 88.2344 66.6328 87.9688 66.9141C87.7188 67.2109 87.4062 67.3594 87.0312 67.3594H84.6641C84.3047 67.3594 83.9922 67.2109 83.7266 66.9141C83.4766 66.6172 83.3516 66.2656 83.3516 65.8594V60.4453Z" fill="white"/>
</svg>
