<svg width="130" height="90" viewBox="0 0 130 90" fill="none" xmlns="http://www.w3.org/2000/svg">
<path d="M0 15C0 6.71573 6.71573 0 15 0H115C123.284 0 130 6.71573 130 15V75C130 83.2843 123.284 90 115 90H15C6.71573 90 0 83.2843 0 75V15Z" fill="#F54335"/>
<path d="M0 15C0 6.71573 6.71573 0 15 0H115C123.284 0 130 6.71573 130 15V75C130 83.2843 123.284 90 115 90H15C6.71573 90 0 83.2843 0 75V15Z" stroke="#FFD300"/>
<path d="M8.39062 56V33.0938H13.0156V43.2656L22.3594 33.0938H28.5781L19.9531 42.0156L29.0469 56H23.0625L16.7656 45.25L13.0156 49.0781V56H8.39062ZM31.4688 56V33.0938H41.2031C43.651 33.0938 45.4271 33.3021 46.5312 33.7188C47.6458 34.125 48.5365 34.8542 49.2031 35.9062C49.8698 36.9583 50.2031 38.1615 50.2031 39.5156C50.2031 41.2344 49.6979 42.6562 48.6875 43.7812C47.6771 44.8958 46.1667 45.599 44.1562 45.8906C45.1562 46.474 45.9792 47.1146 46.625 47.8125C47.2812 48.5104 48.1615 49.75 49.2656 51.5312L52.0625 56H46.5312L43.1875 51.0156C42 49.2344 41.1875 48.1146 40.75 47.6562C40.3125 47.1875 39.849 46.8698 39.3594 46.7031C38.8698 46.526 38.0938 46.4375 37.0312 46.4375H36.0938V56H31.4688ZM36.0938 42.7812H39.5156C41.7344 42.7812 43.1198 42.6875 43.6719 42.5C44.224 42.3125 44.6562 41.9896 44.9688 41.5312C45.2812 41.0729 45.4375 40.5 45.4375 39.8125C45.4375 39.0417 45.2292 38.4219 44.8125 37.9531C44.4062 37.474 43.8281 37.1719 43.0781 37.0469C42.7031 36.9948 41.5781 36.9688 39.7031 36.9688H36.0938V42.7812ZM54.5781 56V33.0938H71.5625V36.9688H59.2031V42.0469H70.7031V45.9062H59.2031V52.1406H72V56H54.5781ZM75.9062 33.0938H84.3594C86.2656 33.0938 87.7188 33.2396 88.7188 33.5312C90.0625 33.9271 91.2135 34.6302 92.1719 35.6406C93.1302 36.651 93.8594 37.8906 94.3594 39.3594C94.8594 40.8177 95.1094 42.6198 95.1094 44.7656C95.1094 46.651 94.875 48.276 94.4062 49.6406C93.8333 51.3073 93.0156 52.6562 91.9531 53.6875C91.151 54.4688 90.0677 55.0781 88.7031 55.5156C87.6823 55.8385 86.3177 56 84.6094 56H75.9062V33.0938ZM80.5312 36.9688V52.1406H83.9844C85.276 52.1406 86.2083 52.0677 86.7812 51.9219C87.5312 51.7344 88.151 51.4167 88.6406 50.9688C89.1406 50.5208 89.5469 49.7865 89.8594 48.7656C90.1719 47.7344 90.3281 46.3333 90.3281 44.5625C90.3281 42.7917 90.1719 41.4323 89.8594 40.4844C89.5469 39.5365 89.1094 38.7969 88.5469 38.2656C87.9844 37.7344 87.2708 37.375 86.4062 37.1875C85.7604 37.0417 84.4948 36.9688 82.6094 36.9688H80.5312ZM98.9062 56V33.0938H103.531V56H98.9062ZM113.109 56V36.9688H106.312V33.0938H124.516V36.9688H117.734V56H113.109Z" fill="white"/>
</svg>
