<svg version="1.0" xmlns="http://www.w3.org/2000/svg"
 width="30" height="30" viewBox="0 0 512.000000 512.000000">

<g transform="translate(0.000000,512.000000) scale(0.100000,-0.100000)"
fill="#3667c4" stroke="none">
<path d="M2419 3950 c-204 -24 -450 -119 -612 -238 -591 -433 -708 -1256 -261
-1839 64 -83 182 -197 267 -256 31 -23 57 -49 57 -58 0 -36 -43 -159 -92 -261
-28 -59 -50 -110 -47 -112 2 -2 42 -10 89 -17 110 -16 428 -16 550 0 331 44
632 151 869 308 120 80 294 255 370 372 239 366 310 832 185 1218 -105 325
-359 614 -669 763 -208 99 -482 146 -706 120z m341 -442 c156 -39 295 -122
411 -246 107 -114 163 -216 206 -373 24 -89 24 -309 0 -398 -53 -193 -151
-346 -297 -462 -36 -28 -66 -53 -68 -54 -8 -7 26 -109 59 -176 38 -76 38 -77
16 -84 -12 -3 -89 -9 -172 -12 -380 -14 -722 103 -938 322 -119 120 -190 247
-238 425 -20 71 -23 110 -24 240 0 135 3 164 24 230 106 340 384 574 726 610
93 9 203 1 295 -22z"/>
<path d="M1912 2738 c-12 -12 -17 -124 -6 -152 5 -14 30 -16 174 -16 144 0
169 2 174 16 11 28 6 140 -6 152 -8 8 -60 12 -168 12 -108 0 -160 -4 -168 -12z"/>
</g>
</svg>
