<svg xmlns="http://www.w3.org/2000/svg" version="1.1" xmlns:xlink="http://www.w3.org/1999/xlink" xmlns:svgjs="http://svgjs.com/svgjs" width="40" height="40" x="0" y="0" viewBox="0 0 64 64" style="enable-background:new 0 0 512 512" xml:space="preserve"><g><g xmlns="http://www.w3.org/2000/svg" id="Phone_Connect" data-name="Phone Connect"><path d="M52,18.35V17a6.00656,6.00656,0,0,0-6-6H14a6.00656,6.00656,0,0,0-6,6V37.91991a6.00655,6.00655,0,0,0,6,6H28V49H25a2,2,0,0,0,0,4H35a1.99993,1.99993,0,0,0,1.9547-1.58169A5.96927,5.96927,0,0,0,41,53h9a6.00655,6.00655,0,0,0,6-6V24A6.00486,6.00486,0,0,0,52,18.35ZM12,37.91991V17a2.00233,2.00233,0,0,1,2-2H46a2.00233,2.00233,0,0,1,2,2v1H41a6.00656,6.00656,0,0,0-6,6V39.91991H14A2.00233,2.00233,0,0,1,12,37.91991ZM32,49V43.91991h3V47a5.95819,5.95819,0,0,0,.3635,2.03671A1.99814,1.99814,0,0,0,35,49Zm20-2a2.00233,2.00233,0,0,1-2,2H41a2.00233,2.00233,0,0,1-2-2V24a2.00233,2.00233,0,0,1,2-2h9a2.00233,2.00233,0,0,1,2,2Z" fill="#fb443e" data-original="#000000" class=""/><path d="M47,42H44a2,2,0,0,0,0,4h3a2,2,0,0,0,0-4Z" fill="#fb443e" data-original="#000000" class=""/></g></g></svg>