<svg xmlns="http://www.w3.org/2000/svg" version="1.1" xmlns:xlink="http://www.w3.org/1999/xlink" xmlns:svgjs="http://svgjs.com/svgjs" width="40" height="40" x="0" y="0" viewBox="0 0 64 64" style="enable-background:new 0 0 512 512" xml:space="preserve"><g><path xmlns="http://www.w3.org/2000/svg" d="M58,0H6A6,6,0,0,0,0,6v5a6,6,0,0,0,6,6h6V62a2,2,0,0,0,3.11,1.66L20,60.4l4.89,3.26a2,2,0,0,0,2.22,0L32,60.4l4.89,3.26a2,2,0,0,0,2.22,0L44,60.4l4.89,3.26a2,2,0,0,0,2,.1A2,2,0,0,0,52,62V17h6a6,6,0,0,0,6-6V6A6,6,0,0,0,58,0ZM48,58.26l-2.9-1.92a2,2,0,0,0-2.21,0L38,59.6,33.1,56.34a2,2,0,0,0-2.22,0L26,59.6l-4.89-3.26a2,2,0,0,0-2.22,0L16,58.26V12H48ZM60,11a2,2,0,0,1-2,2H52V10a2,2,0,0,0-2-2H14a2,2,0,0,0-2,2v3H6a2,2,0,0,1-2-2V6A2,2,0,0,1,6,4H58a2,2,0,0,1,2,2Z" fill="#fb443e" data-original="#000000"/><path xmlns="http://www.w3.org/2000/svg" d="M40,20H22a2,2,0,0,0,0,4H40a2,2,0,0,0,0-4Z" fill="#fb443e" data-original="#000000" class=""/><path xmlns="http://www.w3.org/2000/svg" d="M40,28H22a2,2,0,0,0,0,4H40a2,2,0,0,0,0-4Z" fill="#fb443e" data-original="#000000"/></g> </svg>