<svg xmlns="http://www.w3.org/2000/svg" version="1.1" xmlns:xlink="http://www.w3.org/1999/xlink" xmlns:svgjs="http://svgjs.com/svgjs" width="40" height="40" x="0" y="0" viewBox="0 0 128 128" style="enable-background:new 0 0 512 512" xml:space="preserve"><g><g xmlns="http://www.w3.org/2000/svg"><path d="m106.336 33.3-11.836-11.836a5 5 0 0 0 -7.07 7.071l3.3 3.3h-46.33a24.231 24.231 0 0 0 -24.2 24.2 5 5 0 0 0 10 0 14.219 14.219 0 0 1 14.2-14.2h46.331l-3.3 3.3a5 5 0 1 0 7.07 7.071l11.835-11.835a5 5 0 0 0 0-7.071z" fill="#fb443e" data-original="#000"/><path d="m21.664 94.7 11.836 11.836a5 5 0 1 0 7.071-7.071l-3.3-3.3h46.329a24.231 24.231 0 0 0 24.2-24.2 5 5 0 0 0 -10 0 14.219 14.219 0 0 1 -14.2 14.2h-46.331l3.3-3.3a5 5 0 1 0 -7.069-7.071l-11.836 11.835a5 5 0 0 0 0 7.071z" fill="#fb443e" data-original="#000"/></g></g></svg>