<svg xmlns="http://www.w3.org/2000/svg" version="1.1" xmlns:xlink="http://www.w3.org/1999/xlink" xmlns:svgjs="http://svgjs.com/svgjs" width="40" height="40" x="0" y="0" viewBox="0 0 32 32" style="enable-background:new 0 0 512 512" xml:space="preserve"><g><g xmlns="http://www.w3.org/2000/svg" id="_x37_9_Gift_Box"><path d="m24.34 9.11h-1.83c.32-.38.54-.82.64-1.31.17-.8.02-1.63-.43-2.32-.92-1.42-2.83-1.83-4.25-.91-.95.61-1.95 2.68-2.45 3.85-.5-1.17-1.5-3.24-2.45-3.85-1.42-.92-3.33-.51-4.25.91-.45.69-.6 1.52-.43 2.32.1.49.32.93.64 1.31h-1.87c-1.25 0-2.27 1.02-2.27 2.27v2.92c0 .83.45 1.55 1.12 1.95v9.14c0 1.5099 1.23 2.73 2.74 2.73h13.54c1.51 0 2.7401-1.22 2.7401-2.73v-9.17c.65-.4 1.08-1.11 1.08-1.92v-2.92c-.0001-1.25-1.0201-2.27-2.2701-2.27zm-4.79-2.86c.24-.16.53-.21.82-.15.28.06.52.23.67.47.16.24.21.53.15.81s-.22.52-.47.68c-.27.17-1.29.3-2.49.33.52-1.08 1.06-1.96 1.32-2.14zm-8.55.32c.15-.2401.39-.41.68-.47.07-.02.5631-.0647.81.15.2386.2075.8 1.06 1.32 2.14-1.19-.03-2.22-.16-2.49-.33-.25-.16-.41-.4-.47-.68s-.01-.57.15-.81zm4.02 19.55h-5.77c-.41 0-.74-.32-.74-.73v-8.83h6.51zm0-11.56h-7.36c-.15 0-.27-.12-.27-.26v-2.92c0-.15.12-.27.27-.27h7.36zm8.51 10.83c0 .41-.33.73-.7401.73h-5.77v-9.56h6.51v8.83zm1.08-11.09c0 .14-.12.26-.27.26h-7.32v-3.45h7.32c.15 0 .27.12.27.27z" fill="#fb443e" data-original="#000000"/></g></g></svg>