<svg xmlns="http://www.w3.org/2000/svg" version="1.1" xmlns:xlink="http://www.w3.org/1999/xlink" xmlns:svgjs="http://svgjs.com/svgjs" width="40" height="40" x="0" y="0" viewBox="0 0 512 512" style="enable-background:new 0 0 512 512" xml:space="preserve"><g><path xmlns="http://www.w3.org/2000/svg" d="m432.832031 271.035156c-9.386719-83.875-77.296875-150.308594-161.832031-157.398437v-23.636719h17c41.355469 0 75-33.644531 75-75v-15h-122v113.636719c-84.535156 7.089843-152.445312 73.523437-161.832031 157.398437h-79.167969v240.964844h512v-240.964844zm49.167969 101.945313v37.074219h-44.308594v-37.074219zm0-30h-74.308594v97.074219h74.308594v41.945312h-125.882812v-139.019531h-200.234376v139.019531h-125.882812v-41.945312h74.308594v-97.074219h-74.308594v-41.945313h452zm-296.117188 30h55.117188v109.019531h-55.117188zm85.117188 109.019531v-109.019531h55.117188v109.019531zm-241-71.945312v-37.074219h44.308594v37.074219zm226-267.054688c74.828125 0 136.847656 55.839844 146.609375 128.035156h-293.21875c9.761719-72.195312 71.78125-128.035156 146.609375-128.035156zm32-83h-17v-30h59.429688c-6.191407 17.460938-22.875 30-42.429688 30zm0 0" fill="#fb443e" data-original="#fb443e" class=""/></g></svg>