<svg width="32" height="14" viewBox="0 0 32 14" fill="none" xmlns="http://www.w3.org/2000/svg">
<path d="M0 7C0 3.13401 3.13401 0 7 0H25C28.866 0 32 3.13401 32 7C32 10.866 28.866 14 25 14H7C3.13401 14 0 10.866 0 7Z" fill="#F54335"/>
<path d="M0 7C0 3.13401 3.13401 0 7 0H25C28.866 0 32 3.13401 32 7C32 10.866 28.866 14 25 14H7C3.13401 14 0 10.866 0 7Z" stroke="#F54335"/>
<path d="M5.03467 11.0806C4.27197 11.0806 3.69189 10.8854 3.29443 10.4951C2.89697 10.1012 2.69824 9.55697 2.69824 8.8623V5.31201C2.69824 4.61019 2.89697 4.06592 3.29443 3.6792C3.69548 3.2889 4.27555 3.09375 5.03467 3.09375C5.79736 3.09375 6.37744 3.28711 6.7749 3.67383C7.17236 4.06055 7.37109 4.60661 7.37109 5.31201V8.8623C7.37109 9.56413 7.17057 10.1102 6.76953 10.5005C6.37207 10.8872 5.79378 11.0806 5.03467 11.0806ZM5.03467 9.6626C5.33187 9.6626 5.55029 9.56234 5.68994 9.36182C5.82959 9.15771 5.89941 8.86589 5.89941 8.48633V5.68799C5.89941 5.30843 5.82959 5.01839 5.68994 4.81787C5.55029 4.61377 5.33187 4.51172 5.03467 4.51172C4.73747 4.51172 4.51904 4.61377 4.37939 4.81787C4.23975 5.01839 4.16992 5.30843 4.16992 5.68799V8.48633C4.16992 8.86589 4.23975 9.15771 4.37939 9.36182C4.51904 9.56234 4.73747 9.6626 5.03467 9.6626ZM14.0581 11.0806C13.2954 11.0806 12.7153 10.8854 12.3179 10.4951C11.9204 10.1012 11.7217 9.55697 11.7217 8.8623V5.31201C11.7217 4.61019 11.9204 4.06592 12.3179 3.6792C12.7189 3.2889 13.299 3.09375 14.0581 3.09375C14.8208 3.09375 15.4009 3.28711 15.7983 3.67383C16.1958 4.06055 16.3945 4.60661 16.3945 5.31201V8.8623C16.3945 9.56413 16.194 10.1102 15.793 10.5005C15.3955 10.8872 14.8172 11.0806 14.0581 11.0806ZM14.0581 9.6626C14.3553 9.6626 14.5737 9.56234 14.7134 9.36182C14.853 9.15771 14.9229 8.86589 14.9229 8.48633V5.68799C14.9229 5.30843 14.853 5.01839 14.7134 4.81787C14.5737 4.61377 14.3553 4.51172 14.0581 4.51172C13.7609 4.51172 13.5425 4.61377 13.4028 4.81787C13.2632 5.01839 13.1934 5.30843 13.1934 5.68799V8.48633C13.1934 8.86589 13.2632 9.15771 13.4028 9.36182C13.5425 9.56234 13.7609 9.6626 14.0581 9.6626ZM22.8452 11H21.3735V4.91992L20.4229 5.27979V3.7168L21.5884 3.19043H22.8452V11ZM24.29 9.67334L26.9702 6.1499C27.092 5.99235 27.1851 5.83122 27.2495 5.6665C27.3175 5.49821 27.3516 5.34245 27.3516 5.19922V5.18848C27.3516 4.97721 27.2835 4.81429 27.1475 4.69971C27.0114 4.58512 26.818 4.52783 26.5674 4.52783C26.3239 4.52783 26.127 4.6084 25.9766 4.76953C25.8262 4.92708 25.7349 5.15267 25.7026 5.44629V5.45166H24.1934V5.44629C24.2256 4.95931 24.342 4.54036 24.5425 4.18945C24.7466 3.83854 25.0205 3.57178 25.3643 3.38916C25.708 3.20296 26.1055 3.10986 26.5566 3.10986C27.0436 3.10986 27.459 3.19043 27.8027 3.35156C28.1501 3.50911 28.4132 3.74007 28.5923 4.04443C28.7749 4.3488 28.8662 4.71582 28.8662 5.14551V5.15088C28.8662 5.50537 28.8035 5.85807 28.6782 6.20898C28.5565 6.55632 28.3846 6.87142 28.1626 7.1543L26.2397 9.58203H28.9092V11H24.29V9.67334Z" fill="white"/>
<ellipse cx="9.5" cy="7.53846" rx="0.5" ry="0.538462" fill="white"/>
<ellipse cx="18.5" cy="7.53846" rx="0.5" ry="0.538462" fill="white"/>
</svg>
